<svg xmlns="http://www.w3.org/2000/svg" viewBox="0 0 32 32">
<circle cx="16" cy="16" r="15" fill="#2e7d32"/>
<path d="M16 7c-1.5 0-2.5 1-2.5 2v5.5L10 17c-.8.8-.8 2 0 2.8l3.5 3.5c.8.8 2 .8 2.8 0l3.5-3.5c.8-.8.8-2 0-2.8l-3.5-2.5V9c0-1-1-2-2.5-2z" fill="none" stroke="#fff" stroke-width="1.5" stroke-linecap="round" stroke-linejoin="round"/>
<circle cx="16" cy="16" r="3" fill="none" stroke="#fff" stroke-width="1.5"/>
<line x1="16" y1="13" x2="16" y2="8" stroke="#fff" stroke-width="1.5" stroke-linecap="round"/>
<line x1="13" y1="16" x2="8" y2="16" stroke="#fff" stroke-width="1.5" stroke-linecap="round"/>
<line x1="19" y1="16" x2="24" y2="16" stroke="#fff" stroke-width="1.5" stroke-linecap="round"/>
<line x1="16" y1="19" x2="16" y2="24" stroke="#fff" stroke-width="1.5" stroke-linecap="round"/>
</svg>
